<svg width="570" height="11" viewBox="0 0 570 11" fill="none" xmlns="http://www.w3.org/2000/svg">
<path d="M544.002 10.2447C554.242 9.5277 570 6.46926 570 6.46926L570 0.977783L0 0.977825L1.04907e-06 10.9998C1.04907e-06 10.9998 59.3908 5.17911 97.582 6.46929C115.37 7.07021 125.209 9.47238 142.99 10.2447C180.257 11.8634 201.137 5.76191 238.435 6.46928C263.65 6.9475 277.681 9.73759 302.896 10.2447C341.304 11.0171 362.861 3.96865 401.19 6.46927C415.426 7.39804 423.258 9.73248 437.516 10.2447C459.321 11.0279 471.433 6.32485 493.252 6.46927C513.13 6.60083 524.176 11.6327 544.002 10.2447Z" fill="#0A0A0A"/>
</svg>
