<svg width="22" height="19" viewBox="0 0 22 19" fill="none" xmlns="http://www.w3.org/2000/svg">
<path d="M5.54109 18.1C4.51443 18.1 3.67443 17.89 3.02109 17.47C2.36776 17.05 1.83109 16.5133 1.41109 15.86C0.897761 15.1133 0.571094 14.2967 0.431094 13.41C0.291094 12.5233 0.221094 11.8 0.221094 11.24C0.221094 8.95333 0.804427 6.87666 1.97109 5.01C3.13776 3.14333 4.95776 1.62666 7.43109 0.459996L8.06109 1.72C6.61443 2.32666 5.35443 3.28333 4.28109 4.59C3.25443 5.89666 2.74109 7.22666 2.74109 8.58C2.74109 9.14 2.81109 9.63 2.95109 10.05C3.69776 9.44333 4.56109 9.14 5.54109 9.14C6.75443 9.14 7.80443 9.53666 8.69109 10.33C9.57776 11.1233 10.0211 12.22 10.0211 13.62C10.0211 14.9267 9.57776 16 8.69109 16.84C7.80443 17.68 6.75443 18.1 5.54109 18.1ZM17.4411 18.1C16.4144 18.1 15.5744 17.89 14.9211 17.47C14.2678 17.05 13.7311 16.5133 13.3111 15.86C12.7978 15.1133 12.4711 14.2967 12.3311 13.41C12.1911 12.5233 12.1211 11.8 12.1211 11.24C12.1211 8.95333 12.7044 6.87666 13.8711 5.01C15.0378 3.14333 16.8578 1.62666 19.3311 0.459996L19.9611 1.72C18.5144 2.32666 17.2544 3.28333 16.1811 4.59C15.1544 5.89666 14.6411 7.22666 14.6411 8.58C14.6411 9.14 14.7111 9.63 14.8511 10.05C15.5978 9.44333 16.4611 9.14 17.4411 9.14C18.6544 9.14 19.7044 9.53666 20.5911 10.33C21.4778 11.1233 21.9211 12.22 21.9211 13.62C21.9211 14.9267 21.4778 16 20.5911 16.84C19.7044 17.68 18.6544 18.1 17.4411 18.1Z" fill="white"/>
</svg>
